<mxfile host="app.diagrams.net" modified="2022-06-02T07:20:31.019Z" agent="5.0 (Windows NT 10.0; Win64; x64) AppleWebKit/537.36 (KHTML, like Gecko) Chrome/101.0.4951.67 Safari/537.36" etag="TuImaViXBTfjWCdkhKEs" version="18.1.3" type="github">
  <diagram id="VAK9s_OFq5ru_KAt7cdr" name="Page-1">
    <mxGraphModel dx="3100" dy="1988" grid="1" gridSize="10" guides="1" tooltips="1" connect="1" arrows="1" fold="1" page="1" pageScale="1" pageWidth="850" pageHeight="1100" math="0" shadow="0">
      <root>
        <mxCell id="0" />
        <mxCell id="1" parent="0" />
        <mxCell id="pMCW84RJwVD0TBKUb_ki-16" value="" style="rounded=0;whiteSpace=wrap;html=1;" parent="1" vertex="1">
          <mxGeometry x="-180" y="-230" width="1990" height="1110" as="geometry" />
        </mxCell>
        <mxCell id="pMCW84RJwVD0TBKUb_ki-35" value="" style="rounded=0;whiteSpace=wrap;html=1;dashed=1;" parent="1" vertex="1">
          <mxGeometry x="780" y="10" width="970" height="610" as="geometry" />
        </mxCell>
        <mxCell id="pMCW84RJwVD0TBKUb_ki-34" value="" style="rounded=0;whiteSpace=wrap;html=1;dashed=1;" parent="1" vertex="1">
          <mxGeometry x="20" y="10" width="750" height="610" as="geometry" />
        </mxCell>
        <mxCell id="pMCW84RJwVD0TBKUb_ki-4" value="" style="rounded=0;whiteSpace=wrap;html=1;" parent="1" vertex="1">
          <mxGeometry x="60" y="180" width="330" height="330" as="geometry" />
        </mxCell>
        <mxCell id="pMCW84RJwVD0TBKUb_ki-1" value="AKB-d" style="rounded=0;whiteSpace=wrap;html=1;strokeColor=none;" parent="1" vertex="1">
          <mxGeometry x="165" y="430" width="120" height="60" as="geometry" />
        </mxCell>
        <mxCell id="pMCW84RJwVD0TBKUb_ki-5" value="" style="rounded=0;whiteSpace=wrap;html=1;" parent="1" vertex="1">
          <mxGeometry x="425" y="320" width="325" height="190" as="geometry" />
        </mxCell>
        <mxCell id="pMCW84RJwVD0TBKUb_ki-2" value="OSP-16" style="rounded=0;whiteSpace=wrap;html=1;fillColor=#fff2cc;strokeColor=#d6b656;" parent="1" vertex="1">
          <mxGeometry x="240" y="340" width="120" height="60" as="geometry" />
        </mxCell>
        <mxCell id="pMCW84RJwVD0TBKUb_ki-3" value="OSP-16" style="rounded=0;whiteSpace=wrap;html=1;fillColor=#fff2cc;strokeColor=#d6b656;" parent="1" vertex="1">
          <mxGeometry x="447" y="340" width="120" height="60" as="geometry" />
        </mxCell>
        <mxCell id="pMCW84RJwVD0TBKUb_ki-6" value="M2l-d" style="rounded=0;whiteSpace=wrap;html=1;strokeColor=none;" parent="1" vertex="1">
          <mxGeometry x="530" y="430" width="120" height="60" as="geometry" />
        </mxCell>
        <mxCell id="pMCW84RJwVD0TBKUb_ki-9" value="" style="rounded=0;whiteSpace=wrap;html=1;fillColor=#f8cecc;strokeColor=#b85450;" parent="1" vertex="1">
          <mxGeometry x="60" y="180" width="330" height="140" as="geometry" />
        </mxCell>
        <mxCell id="pMCW84RJwVD0TBKUb_ki-10" value="OSP-10" style="rounded=0;whiteSpace=wrap;html=1;" parent="1" vertex="1">
          <mxGeometry x="90" y="340" width="120" height="60" as="geometry" />
        </mxCell>
        <mxCell id="pMCW84RJwVD0TBKUb_ki-11" value="Central" style="rounded=0;whiteSpace=wrap;html=1;strokeColor=none;fillColor=#f8cecc;" parent="1" vertex="1">
          <mxGeometry x="158" y="260" width="120" height="60" as="geometry" />
        </mxCell>
        <mxCell id="pMCW84RJwVD0TBKUb_ki-17" value="FCAPS" style="rounded=0;whiteSpace=wrap;html=1;" parent="1" vertex="1">
          <mxGeometry x="90" y="210" width="120" height="60" as="geometry" />
        </mxCell>
        <mxCell id="pMCW84RJwVD0TBKUb_ki-20" value="" style="rounded=0;whiteSpace=wrap;html=1;" parent="1" vertex="1">
          <mxGeometry x="800" y="180" width="330" height="330" as="geometry" />
        </mxCell>
        <mxCell id="pMCW84RJwVD0TBKUb_ki-21" value="A2E-d" style="rounded=0;whiteSpace=wrap;html=1;strokeColor=none;" parent="1" vertex="1">
          <mxGeometry x="830" y="430" width="120" height="60" as="geometry" />
        </mxCell>
        <mxCell id="pMCW84RJwVD0TBKUb_ki-22" value="" style="rounded=0;whiteSpace=wrap;html=1;" parent="1" vertex="1">
          <mxGeometry x="1165" y="320" width="325" height="190" as="geometry" />
        </mxCell>
        <mxCell id="pMCW84RJwVD0TBKUb_ki-23" value="OSP-16" style="rounded=0;whiteSpace=wrap;html=1;fillColor=#fff2cc;strokeColor=#d6b656;" parent="1" vertex="1">
          <mxGeometry x="980" y="340" width="120" height="60" as="geometry" />
        </mxCell>
        <mxCell id="pMCW84RJwVD0TBKUb_ki-25" value="AUQ-d" style="rounded=0;whiteSpace=wrap;html=1;strokeColor=none;" parent="1" vertex="1">
          <mxGeometry x="1270" y="430" width="120" height="60" as="geometry" />
        </mxCell>
        <mxCell id="pMCW84RJwVD0TBKUb_ki-27" value="" style="rounded=0;whiteSpace=wrap;html=1;fillColor=#f8cecc;strokeColor=#b85450;" parent="1" vertex="1">
          <mxGeometry x="800" y="180" width="330" height="140" as="geometry" />
        </mxCell>
        <mxCell id="pMCW84RJwVD0TBKUb_ki-28" value="OSP-10" style="rounded=0;whiteSpace=wrap;html=1;" parent="1" vertex="1">
          <mxGeometry x="830" y="340" width="120" height="60" as="geometry" />
        </mxCell>
        <mxCell id="pMCW84RJwVD0TBKUb_ki-29" value="A2E-Central" style="rounded=0;whiteSpace=wrap;html=1;strokeColor=none;fillColor=#f8cecc;" parent="1" vertex="1">
          <mxGeometry x="898" y="260" width="120" height="60" as="geometry" />
        </mxCell>
        <mxCell id="pMCW84RJwVD0TBKUb_ki-31" value="FCAPS" style="rounded=0;whiteSpace=wrap;html=1;" parent="1" vertex="1">
          <mxGeometry x="830" y="210" width="120" height="60" as="geometry" />
        </mxCell>
        <mxCell id="pMCW84RJwVD0TBKUb_ki-32" value="OSP-16" style="rounded=0;whiteSpace=wrap;html=1;fillColor=#fff2cc;strokeColor=#d6b656;" parent="1" vertex="1">
          <mxGeometry x="1342.5" y="340" width="120" height="60" as="geometry" />
        </mxCell>
        <mxCell id="pMCW84RJwVD0TBKUb_ki-33" value="OSP-10" style="rounded=0;whiteSpace=wrap;html=1;" parent="1" vertex="1">
          <mxGeometry x="1192.5" y="340" width="120" height="60" as="geometry" />
        </mxCell>
        <mxCell id="pMCW84RJwVD0TBKUb_ki-36" value="&lt;h2 style=&quot;font-size: 24px;&quot;&gt;&lt;font style=&quot;font-size: 24px;&quot;&gt;LAB&lt;/font&gt;&lt;span style=&quot;&quot;&gt;S&lt;/span&gt;&lt;/h2&gt;" style="rounded=0;whiteSpace=wrap;html=1;strokeColor=none;strokeWidth=4;" parent="1" vertex="1">
          <mxGeometry x="360" y="550" width="120" height="60" as="geometry" />
        </mxCell>
        <mxCell id="pMCW84RJwVD0TBKUb_ki-37" value="&lt;h2 style=&quot;&quot;&gt;&lt;font style=&quot;font-size: 24px;&quot;&gt;Commercial&lt;/font&gt;&lt;/h2&gt;" style="rounded=0;whiteSpace=wrap;html=1;strokeColor=none;strokeWidth=4;" parent="1" vertex="1">
          <mxGeometry x="1150" y="550" width="120" height="60" as="geometry" />
        </mxCell>
        <mxCell id="pMCW84RJwVD0TBKUb_ki-38" value="&lt;h2 style=&quot;&quot;&gt;&lt;font style=&quot;font-size: 24px;&quot;&gt;Commercial&lt;/font&gt;&lt;/h2&gt;" style="rounded=0;whiteSpace=wrap;html=1;strokeColor=none;strokeWidth=4;" parent="1" vertex="1">
          <mxGeometry x="1150" y="550" width="120" height="60" as="geometry" />
        </mxCell>
        <mxCell id="pMCW84RJwVD0TBKUb_ki-39" value="&lt;h1 style=&quot;&quot;&gt;&lt;font style=&quot;font-size: 36px;&quot;&gt;Etisalat Telco Cloud&lt;/font&gt;&lt;/h1&gt;" style="rounded=0;whiteSpace=wrap;html=1;strokeColor=none;strokeWidth=4;fillColor=#d5e8d4;" parent="1" vertex="1">
          <mxGeometry x="548" y="-190" width="470" height="60" as="geometry" />
        </mxCell>
        <mxCell id="pMCW84RJwVD0TBKUb_ki-42" value="" style="endArrow=none;dashed=1;html=1;rounded=0;fontSize=36;entryX=1;entryY=0.656;entryDx=0;entryDy=0;entryPerimeter=0;" parent="1" edge="1">
          <mxGeometry width="50" height="50" relative="1" as="geometry">
            <mxPoint x="1530" y="416" as="sourcePoint" />
            <mxPoint x="1610" y="416.15999999999985" as="targetPoint" />
          </mxGeometry>
        </mxCell>
        <mxCell id="pMCW84RJwVD0TBKUb_ki-44" value="&lt;font color=&quot;#ff0000&quot;&gt;Other sites&lt;/font&gt;" style="rounded=0;whiteSpace=wrap;html=1;strokeColor=none;" parent="1" vertex="1">
          <mxGeometry x="1515" y="420" width="120" height="60" as="geometry" />
        </mxCell>
        <mxCell id="pMCW84RJwVD0TBKUb_ki-7" value="OCP-workload" style="rounded=0;whiteSpace=wrap;html=1;fillColor=#fff2cc;strokeColor=#d6b656;" parent="1" vertex="1">
          <mxGeometry x="980" y="412" width="120" height="60" as="geometry" />
        </mxCell>
        <mxCell id="pMCW84RJwVD0TBKUb_ki-8" value="OCP-FCAPS" style="rounded=0;whiteSpace=wrap;html=1;fillColor=#fff2cc;strokeColor=#d6b656;" parent="1" vertex="1">
          <mxGeometry x="980" y="210" width="120" height="60" as="geometry" />
        </mxCell>
      </root>
    </mxGraphModel>
  </diagram>
</mxfile>
